<?xml version="1.0" encoding="utf-8"?>
<!-- Generator: Adobe Illustrator 23.0.3, SVG Export Plug-In . SVG Version: 6.00 Build 0)  -->
<svg version="1.1" id="Calque_1" xmlns="http://www.w3.org/2000/svg" xmlns:xlink="http://www.w3.org/1999/xlink" x="0px" y="0px"
	 viewBox="0 0 512 512" style="enable-background:new 0 0 512 512;" xml:space="preserve">
<style type="text/css">
	.st0{fill:#42210B;}
</style>
<g>
	<path class="st0" d="M222.63,225.21c-10.33,0-18.48,9.06-18.48,20.11c0,11.05,8.33,20.11,18.48,20.11
		c10.33,0,18.48-9.06,18.48-20.11C241.29,234.27,232.95,225.21,222.63,225.21z M288.76,225.21c-10.33,0-18.48,9.06-18.48,20.11
		c0,11.05,8.33,20.11,18.48,20.11c10.33,0,18.48-9.06,18.48-20.11C307.24,234.27,299.08,225.21,288.76,225.21z"/>
	<path class="st0" d="M378.28,74.94H133.72c-20.62,0-37.41,16.66-37.41,37.3v244.79c0,20.64,16.79,37.3,37.41,37.3h206.96
		l-9.67-33.5l23.36,21.55l22.08,20.28l39.24,34.4V112.24C415.69,91.6,398.9,74.94,378.28,74.94z M306.87,309.82
		c0,0-6.52-7.79-11.96-14.68c23.73-6.7,32.79-21.56,32.79-21.56c-7.43,4.89-14.49,8.33-20.84,10.69c-9.06,3.8-17.76,6.34-26.27,7.79
		c-17.39,3.26-33.34,2.36-46.93-0.18c-10.33-1.99-19.2-4.89-26.63-7.79c-4.17-1.63-8.7-3.62-13.23-6.16
		c-0.54-0.36-1.09-0.54-1.63-0.91c-0.36-0.18-0.54-0.36-0.72-0.54c-3.26-1.81-5.07-3.08-5.07-3.08s8.7,14.49,31.71,21.38
		c-5.44,6.88-12.14,15.04-12.14,15.04c-40.04-1.27-55.26-27.54-55.26-27.54c0-58.34,26.09-105.63,26.09-105.63
		c26.09-19.57,50.91-19.02,50.91-19.02l1.81,2.17c-32.61,9.42-47.65,23.73-47.65,23.73s3.99-2.17,10.69-5.25
		c19.39-8.52,34.79-10.87,41.13-11.41c1.09-0.18,1.99-0.36,3.08-0.36c11.05-1.45,23.55-1.81,36.6-0.36
		c17.21,1.99,35.69,7.07,54.53,17.39c0,0-14.31-13.59-45.11-23.01l2.54-2.9c0,0,24.82-0.54,50.91,19.02
		c0,0,26.09,47.29,26.09,105.63C362.31,282.28,346.91,308.55,306.87,309.82z"/>
</g>
</svg>
