<?xml version="1.0" encoding="utf-8"?>
<!-- Generator: Adobe Illustrator 23.0.3, SVG Export Plug-In . SVG Version: 6.00 Build 0)  -->
<svg version="1.1" id="Calque_1" xmlns="http://www.w3.org/2000/svg" xmlns:xlink="http://www.w3.org/1999/xlink" x="0px" y="0px"
	 viewBox="0 0 512 512" style="enable-background:new 0 0 512 512;" xml:space="preserve">
<style type="text/css">
	.st0{fill:#42210B;}
</style>
<g>
	<path class="st0" d="M395.39,222l-24.53-3.12c-2.02-6.22-4.51-12.22-7.42-17.93l15.15-19.5c6.13-7.89,5.41-19.03-1.59-25.82
		l-20.55-20.55c-6.85-7.07-17.99-7.78-25.9-1.66l-19.48,15.15c-5.7-2.91-11.7-5.4-17.94-7.42l-3.12-24.49
		c-1.17-9.82-9.51-17.22-19.39-17.22h-29.23c-9.88,0-18.21,7.4-19.39,17.18l-3.12,24.53c-6.24,2.02-12.24,4.5-17.94,7.42
		l-19.49-15.15c-7.88-6.12-19.02-5.41-25.82,1.59l-20.55,20.54c-7.07,6.86-7.79,18-1.66,25.91l15.15,19.49
		c-2.92,5.7-5.4,11.7-7.42,17.93L116.66,222c-9.82,1.17-17.22,9.51-17.22,19.39v29.22c0,9.88,7.4,18.21,17.18,19.39l24.53,3.12
		c2.02,6.22,4.51,12.22,7.42,17.93l-15.15,19.5c-6.13,7.89-5.41,19.03,1.59,25.82l20.55,20.55c6.86,7.06,17.99,7.76,25.9,1.64
		l19.49-15.15c5.7,2.92,11.7,5.41,17.93,7.42l3.12,24.48c1.17,9.85,9.51,17.25,19.39,17.25h29.23c9.88,0,18.21-7.4,19.39-17.18
		l3.12-24.53c6.22-2.02,12.23-4.51,17.93-7.42l19.51,15.15c7.89,6.13,19.04,5.41,25.82-1.59l20.55-20.55
		c7.07-6.86,7.79-17.99,1.66-25.9l-15.15-19.49c2.92-5.7,5.41-11.7,7.42-17.93l24.48-3.12c9.82-1.17,17.22-9.51,17.22-19.39v-29.22
		C412.57,231.51,405.17,223.17,395.39,222L395.39,222z M257.76,319.55c-35.91,0-65.13-29.22-65.13-65.13s29.22-65.13,65.13-65.13
		s65.13,29.22,65.13,65.13S293.67,319.55,257.76,319.55L257.76,319.55z"/>
</g>
</svg>
