<?xml version="1.0" encoding="utf-8"?>
<!-- Generator: Adobe Illustrator 23.0.3, SVG Export Plug-In . SVG Version: 6.00 Build 0)  -->
<svg version="1.1" id="Calque_1" xmlns="http://www.w3.org/2000/svg" xmlns:xlink="http://www.w3.org/1999/xlink" x="0px" y="0px"
	 viewBox="0 0 512 512" style="enable-background:new 0 0 512 512;" xml:space="preserve">
<style type="text/css">
	.st0{fill:#42210B;}
</style>
<g>
	<g id="XMLID_1_">
		<path id="XMLID_17_" class="st0" d="M180.85,261.33h-63.8c0.97,16.78,4.97,32.98,11.75,47.96h56.33
			C182.65,294.08,181.2,277.93,180.85,261.33z"/>
		<path id="XMLID_16_" class="st0" d="M297.49,147.99c-5.76-13.69-12.44-24.29-19.51-31.27c-3.74-0.52-7.52-0.89-11.32-1.11v65.78
			h41.46C305.28,169.27,301.72,158.04,297.49,147.99L297.49,147.99z"/>
		<path id="XMLID_15_" class="st0" d="M197.47,245.34h47.87v-47.96h-43.39C199.36,212.48,197.84,228.64,197.47,245.34z"/>
		<path id="XMLID_14_" class="st0" d="M310.05,197.38h-43.39v47.96h47.87C314.16,228.64,312.64,212.48,310.05,197.38L310.05,197.38z
			"/>
		<path id="XMLID_13_" class="st0" d="M266.66,330.61v65.78c3.81-0.22,7.58-0.59,11.32-1.11c7.06-6.98,13.74-17.58,19.51-31.27
			c4.23-10.05,7.79-21.29,10.64-33.4H266.66z"/>
		<path id="XMLID_12_" class="st0" d="M214.51,147.99c-4.23,10.05-7.79,21.29-10.64,33.4h41.46v-65.78
			c-3.81,0.22-7.58,0.59-11.32,1.11C226.96,123.7,220.28,134.3,214.51,147.99z"/>
		<path id="XMLID_11_" class="st0" d="M214.51,364.01c5.76,13.69,12.44,24.29,19.51,31.27c3.74,0.52,7.52,0.89,11.32,1.11v-65.78
			h-41.46C206.72,342.73,210.28,353.96,214.51,364.01L214.51,364.01z"/>
		<path id="XMLID_10_" class="st0" d="M185.12,197.38h-56.33c-6.78,14.99-10.78,31.19-11.75,47.96h63.8
			C181.2,228.74,182.65,212.59,185.12,197.38z"/>
		<path id="XMLID_9_" class="st0" d="M201.71,141.58c2.95-7.01,6.15-13.33,9.56-18.97c-20.3,6.8-38.9,18.26-54.47,33.84
			c-7.64,7.64-14.28,16-19.87,24.93h52.45C192.56,166.91,196.69,153.5,201.71,141.58z"/>
		<path id="XMLID_8_" class="st0" d="M189.37,330.61h-52.45c5.59,8.93,12.24,17.3,19.87,24.93c15.58,15.58,34.18,27.04,54.47,33.84
			c-3.41-5.63-6.61-11.96-9.56-18.97C196.69,358.5,192.56,345.09,189.37,330.61z"/>
		<path id="XMLID_7_" class="st0" d="M322.63,181.39h52.45c-5.59-8.93-12.24-17.3-19.87-24.93c-15.58-15.58-34.18-27.04-54.47-33.84
			c3.41,5.63,6.61,11.96,9.56,18.97C315.31,153.5,319.44,166.91,322.63,181.39z"/>
		<path id="XMLID_6_" class="st0" d="M310.29,370.42c-2.95,7.01-6.15,13.33-9.56,18.97c20.3-6.8,38.9-18.26,54.47-33.84
			c7.64-7.64,14.28-16,19.87-24.93h-52.45C319.44,345.09,315.31,358.5,310.29,370.42z"/>
		<path id="XMLID_5_" class="st0" d="M201.95,309.29h43.39v-47.96h-47.87C197.84,278.03,199.36,294.19,201.95,309.29L201.95,309.29z
			"/>
		<path id="XMLID_4_" class="st0" d="M314.53,261.33h-47.87v47.96h43.39C312.64,294.19,314.16,278.03,314.53,261.33L314.53,261.33z"
			/>
		<path id="XMLID_3_" class="st0" d="M326.88,309.29h56.33c6.78-14.99,10.78-31.19,11.75-47.96h-63.8
			C330.8,277.93,329.35,294.08,326.88,309.29z"/>
		<path id="XMLID_2_" class="st0" d="M331.15,245.34h63.8c-0.97-16.78-4.97-32.98-11.75-47.96h-56.33
			C329.35,212.59,330.8,228.74,331.15,245.34z"/>
	</g>
</g>
</svg>
